<mxfile host="Electron" agent="Mozilla/5.0 (Windows NT 10.0; Win64; x64) AppleWebKit/537.36 (KHTML, like Gecko) draw.io/24.7.17 Chrome/128.0.6613.36 Electron/32.0.1 Safari/537.36" version="24.7.17">
  <diagram name="As-is" id="mZXC3YA9xY0klCp42GPN">
    <mxGraphModel dx="1434" dy="157" grid="0" gridSize="10" guides="1" tooltips="1" connect="1" arrows="1" fold="1" page="0" pageScale="1" pageWidth="850" pageHeight="1100" background="#0a0b0a" math="0" shadow="0">
      <root>
        <mxCell id="zGkCt-gyXXFeYOoSQisU-0" />
        <mxCell id="zGkCt-gyXXFeYOoSQisU-1" parent="zGkCt-gyXXFeYOoSQisU-0" />
        <mxCell id="zGkCt-gyXXFeYOoSQisU-2" value="Contract set-up process flow" style="swimlane;childLayout=stackLayout;resizeParent=1;resizeParentMax=0;horizontal=0;startSize=20;horizontalStack=0;html=1;" parent="zGkCt-gyXXFeYOoSQisU-1" vertex="1">
          <mxGeometry x="-149" y="481" width="1608" height="496" as="geometry">
            <mxRectangle x="-325" y="193" width="40" height="50" as="alternateBounds" />
          </mxGeometry>
        </mxCell>
        <mxCell id="zGkCt-gyXXFeYOoSQisU-61" style="edgeStyle=orthogonalEdgeStyle;rounded=0;orthogonalLoop=1;jettySize=auto;html=1;" parent="zGkCt-gyXXFeYOoSQisU-2" source="zGkCt-gyXXFeYOoSQisU-30" target="zGkCt-gyXXFeYOoSQisU-17" edge="1">
          <mxGeometry relative="1" as="geometry" />
        </mxCell>
        <mxCell id="zGkCt-gyXXFeYOoSQisU-62" style="edgeStyle=orthogonalEdgeStyle;rounded=0;orthogonalLoop=1;jettySize=auto;html=1;entryX=0.5;entryY=0;entryDx=0;entryDy=0;entryPerimeter=0;" parent="zGkCt-gyXXFeYOoSQisU-2" source="zGkCt-gyXXFeYOoSQisU-17" target="zGkCt-gyXXFeYOoSQisU-32" edge="1">
          <mxGeometry relative="1" as="geometry" />
        </mxCell>
        <mxCell id="zGkCt-gyXXFeYOoSQisU-63" style="edgeStyle=orthogonalEdgeStyle;rounded=0;orthogonalLoop=1;jettySize=auto;html=1;entryX=0.5;entryY=0;entryDx=0;entryDy=0;entryPerimeter=0;" parent="zGkCt-gyXXFeYOoSQisU-2" source="zGkCt-gyXXFeYOoSQisU-34" target="zGkCt-gyXXFeYOoSQisU-51" edge="1">
          <mxGeometry relative="1" as="geometry">
            <mxPoint x="615" y="340" as="targetPoint" />
          </mxGeometry>
        </mxCell>
        <mxCell id="zGkCt-gyXXFeYOoSQisU-64" style="edgeStyle=orthogonalEdgeStyle;rounded=0;orthogonalLoop=1;jettySize=auto;html=1;entryX=0;entryY=0.5;entryDx=0;entryDy=0;entryPerimeter=0;" parent="zGkCt-gyXXFeYOoSQisU-2" source="zGkCt-gyXXFeYOoSQisU-52" target="zGkCt-gyXXFeYOoSQisU-37" edge="1">
          <mxGeometry relative="1" as="geometry" />
        </mxCell>
        <mxCell id="zGkCt-gyXXFeYOoSQisU-66" style="edgeStyle=orthogonalEdgeStyle;rounded=0;orthogonalLoop=1;jettySize=auto;html=1;entryX=0.5;entryY=1;entryDx=0;entryDy=0;entryPerimeter=0;" parent="zGkCt-gyXXFeYOoSQisU-2" source="zGkCt-gyXXFeYOoSQisU-44" target="zGkCt-gyXXFeYOoSQisU-18" edge="1">
          <mxGeometry relative="1" as="geometry" />
        </mxCell>
        <mxCell id="zGkCt-gyXXFeYOoSQisU-67" style="edgeStyle=orthogonalEdgeStyle;rounded=0;orthogonalLoop=1;jettySize=auto;html=1;entryX=0.5;entryY=0;entryDx=0;entryDy=0;entryPerimeter=0;" parent="zGkCt-gyXXFeYOoSQisU-2" source="zGkCt-gyXXFeYOoSQisU-19" target="zGkCt-gyXXFeYOoSQisU-46" edge="1">
          <mxGeometry relative="1" as="geometry" />
        </mxCell>
        <mxCell id="zGkCt-gyXXFeYOoSQisU-68" style="edgeStyle=orthogonalEdgeStyle;rounded=0;orthogonalLoop=1;jettySize=auto;html=1;entryX=0.5;entryY=0;entryDx=0;entryDy=0;entryPerimeter=0;" parent="zGkCt-gyXXFeYOoSQisU-2" source="zGkCt-gyXXFeYOoSQisU-47" target="zGkCt-gyXXFeYOoSQisU-57" edge="1">
          <mxGeometry relative="1" as="geometry" />
        </mxCell>
        <mxCell id="zGkCt-gyXXFeYOoSQisU-70" style="edgeStyle=orthogonalEdgeStyle;rounded=0;orthogonalLoop=1;jettySize=auto;html=1;entryX=0.5;entryY=1;entryDx=0;entryDy=0;entryPerimeter=0;" parent="zGkCt-gyXXFeYOoSQisU-2" source="zGkCt-gyXXFeYOoSQisU-55" target="zGkCt-gyXXFeYOoSQisU-37" edge="1">
          <mxGeometry relative="1" as="geometry" />
        </mxCell>
        <mxCell id="zGkCt-gyXXFeYOoSQisU-3" value="Procurement professional" style="swimlane;startSize=20;horizontal=0;html=1;" parent="zGkCt-gyXXFeYOoSQisU-2" vertex="1">
          <mxGeometry x="20" width="1588" height="190" as="geometry" />
        </mxCell>
        <mxCell id="zGkCt-gyXXFeYOoSQisU-4" value="" style="points=[[0.145,0.145,0],[0.5,0,0],[0.855,0.145,0],[1,0.5,0],[0.855,0.855,0],[0.5,1,0],[0.145,0.855,0],[0,0.5,0]];shape=mxgraph.bpmn.event;html=1;verticalLabelPosition=bottom;labelBackgroundColor=#ffffff;verticalAlign=top;align=center;perimeter=ellipsePerimeter;outlineConnect=0;aspect=fixed;outline=standard;symbol=general;" parent="zGkCt-gyXXFeYOoSQisU-3" vertex="1">
          <mxGeometry x="30" y="15" width="40" height="40" as="geometry" />
        </mxCell>
        <mxCell id="zGkCt-gyXXFeYOoSQisU-5" style="edgeStyle=orthogonalEdgeStyle;rounded=0;orthogonalLoop=1;jettySize=auto;html=1;" parent="zGkCt-gyXXFeYOoSQisU-3" source="zGkCt-gyXXFeYOoSQisU-6" edge="1">
          <mxGeometry relative="1" as="geometry">
            <mxPoint x="220" y="35" as="targetPoint" />
          </mxGeometry>
        </mxCell>
        <mxCell id="zGkCt-gyXXFeYOoSQisU-6" value="&lt;div&gt;&lt;font style=&quot;font-size: 10px;&quot;&gt;&lt;br&gt;&lt;/font&gt;&lt;/div&gt;&lt;font style=&quot;font-size: 10px;&quot;&gt;Create contract workspace&lt;/font&gt;" style="points=[[0.25,0,0],[0.5,0,0],[0.75,0,0],[1,0.25,0],[1,0.5,0],[1,0.75,0],[0.75,1,0],[0.5,1,0],[0.25,1,0],[0,0.75,0],[0,0.5,0],[0,0.25,0]];shape=mxgraph.bpmn.task;whiteSpace=wrap;rectStyle=rounded;size=10;html=1;container=1;expand=0;collapsible=0;taskMarker=user;direction=east;" parent="zGkCt-gyXXFeYOoSQisU-3" vertex="1">
          <mxGeometry x="100" y="10" width="90" height="50" as="geometry" />
        </mxCell>
        <mxCell id="mF-2V8xIqXrmi4AteSaE-3" style="edgeStyle=orthogonalEdgeStyle;rounded=0;orthogonalLoop=1;jettySize=auto;html=1;" parent="zGkCt-gyXXFeYOoSQisU-3" source="zGkCt-gyXXFeYOoSQisU-7" edge="1">
          <mxGeometry relative="1" as="geometry">
            <mxPoint x="353" y="35" as="targetPoint" />
          </mxGeometry>
        </mxCell>
        <mxCell id="zGkCt-gyXXFeYOoSQisU-7" value="&lt;div&gt;&lt;font style=&quot;font-size: 10px;&quot;&gt;Validate&amp;nbsp;&lt;/font&gt;&lt;/div&gt;&lt;div&gt;&lt;font style=&quot;font-size: 10px;&quot;&gt;supplier&lt;/font&gt;&lt;/div&gt;" style="points=[[0.25,0,0],[0.5,0,0],[0.75,0,0],[1,0.25,0],[1,0.5,0],[1,0.75,0],[0.75,1,0],[0.5,1,0],[0.25,1,0],[0,0.75,0],[0,0.5,0],[0,0.25,0]];shape=mxgraph.bpmn.task;whiteSpace=wrap;rectStyle=rounded;size=10;html=1;container=1;expand=0;collapsible=0;taskMarker=user;" parent="zGkCt-gyXXFeYOoSQisU-3" vertex="1">
          <mxGeometry x="220" y="10" width="96" height="50" as="geometry" />
        </mxCell>
        <mxCell id="zGkCt-gyXXFeYOoSQisU-8" style="edgeStyle=orthogonalEdgeStyle;rounded=0;orthogonalLoop=1;jettySize=auto;html=1;" parent="zGkCt-gyXXFeYOoSQisU-3" edge="1">
          <mxGeometry relative="1" as="geometry">
            <mxPoint x="100" y="34.5" as="targetPoint" />
            <mxPoint x="70" y="34.5" as="sourcePoint" />
          </mxGeometry>
        </mxCell>
        <mxCell id="zGkCt-gyXXFeYOoSQisU-15" style="edgeStyle=orthogonalEdgeStyle;rounded=0;orthogonalLoop=1;jettySize=auto;html=1;" parent="zGkCt-gyXXFeYOoSQisU-3" source="zGkCt-gyXXFeYOoSQisU-16" edge="1">
          <mxGeometry relative="1" as="geometry">
            <mxPoint x="355" y="220" as="targetPoint" />
          </mxGeometry>
        </mxCell>
        <mxCell id="zGkCt-gyXXFeYOoSQisU-16" value="&lt;div&gt;&lt;span style=&quot;font-size: 10px;&quot;&gt;&lt;br&gt;&lt;/span&gt;&lt;/div&gt;&lt;div&gt;&lt;span style=&quot;font-size: 10px;&quot;&gt;Create supplier registration ticket&lt;/span&gt;&lt;/div&gt;" style="points=[[0.25,0,0],[0.5,0,0],[0.75,0,0],[1,0.25,0],[1,0.5,0],[1,0.75,0],[0.75,1,0],[0.5,1,0],[0.25,1,0],[0,0.75,0],[0,0.5,0],[0,0.25,0]];shape=mxgraph.bpmn.task;whiteSpace=wrap;rectStyle=rounded;size=10;html=1;container=1;expand=0;collapsible=0;taskMarker=user;" parent="zGkCt-gyXXFeYOoSQisU-3" vertex="1">
          <mxGeometry x="310" y="120" width="90" height="50" as="geometry" />
        </mxCell>
        <mxCell id="zGkCt-gyXXFeYOoSQisU-17" value="&lt;div&gt;&lt;font style=&quot;font-size: 10px;&quot;&gt;&lt;br&gt;&lt;/font&gt;&lt;/div&gt;&lt;div&gt;&lt;font style=&quot;font-size: 10px;&quot;&gt;Provide available details&lt;/font&gt;&lt;/div&gt;" style="points=[[0.25,0,0],[0.5,0,0],[0.75,0,0],[1,0.25,0],[1,0.5,0],[1,0.75,0],[0.75,1,0],[0.5,1,0],[0.25,1,0],[0,0.75,0],[0,0.5,0],[0,0.25,0]];shape=mxgraph.bpmn.task;whiteSpace=wrap;rectStyle=rounded;size=10;html=1;container=1;expand=0;collapsible=0;taskMarker=user;" parent="zGkCt-gyXXFeYOoSQisU-3" vertex="1">
          <mxGeometry x="430" y="110" width="90" height="50" as="geometry" />
        </mxCell>
        <mxCell id="zGkCt-gyXXFeYOoSQisU-18" value="&lt;div&gt;&lt;font style=&quot;font-size: 10px;&quot;&gt;Receive&lt;/font&gt;&lt;/div&gt;&lt;div&gt;&lt;font style=&quot;font-size: 10px;&quot;&gt;&amp;nbsp;notification&lt;/font&gt;&lt;/div&gt;" style="points=[[0.25,0,0],[0.5,0,0],[0.75,0,0],[1,0.25,0],[1,0.5,0],[1,0.75,0],[0.75,1,0],[0.5,1,0],[0.25,1,0],[0,0.75,0],[0,0.5,0],[0,0.25,0]];shape=mxgraph.bpmn.task;whiteSpace=wrap;rectStyle=rounded;size=10;html=1;container=1;expand=0;collapsible=0;taskMarker=service;" parent="zGkCt-gyXXFeYOoSQisU-3" vertex="1">
          <mxGeometry x="968" y="87" width="90" height="50" as="geometry" />
        </mxCell>
        <mxCell id="zGkCt-gyXXFeYOoSQisU-19" value="&lt;div&gt;&lt;font style=&quot;font-size: 10px;&quot;&gt;&lt;br&gt;&lt;/font&gt;&lt;/div&gt;&lt;div&gt;&lt;font style=&quot;font-size: 10px;&quot;&gt;Input mandatory contract details&lt;/font&gt;&lt;/div&gt;" style="points=[[0.25,0,0],[0.5,0,0],[0.75,0,0],[1,0.25,0],[1,0.5,0],[1,0.75,0],[0.75,1,0],[0.5,1,0],[0.25,1,0],[0,0.75,0],[0,0.5,0],[0,0.25,0]];shape=mxgraph.bpmn.task;whiteSpace=wrap;rectStyle=rounded;size=10;html=1;container=1;expand=0;collapsible=0;taskMarker=user;" parent="zGkCt-gyXXFeYOoSQisU-3" vertex="1">
          <mxGeometry x="485" y="11.25" width="90" height="50" as="geometry" />
        </mxCell>
        <mxCell id="zGkCt-gyXXFeYOoSQisU-21" value="&lt;div&gt;&lt;font style=&quot;font-size: 10px;&quot;&gt;Receive&lt;/font&gt;&lt;/div&gt;&lt;div&gt;&lt;font style=&quot;font-size: 10px;&quot;&gt;&amp;nbsp;notification&lt;/font&gt;&lt;/div&gt;" style="points=[[0.25,0,0],[0.5,0,0],[0.75,0,0],[1,0.25,0],[1,0.5,0],[1,0.75,0],[0.75,1,0],[0.5,1,0],[0.25,1,0],[0,0.75,0],[0,0.5,0],[0,0.25,0]];shape=mxgraph.bpmn.task;whiteSpace=wrap;rectStyle=rounded;size=10;html=1;container=1;expand=0;collapsible=0;taskMarker=service;" parent="zGkCt-gyXXFeYOoSQisU-3" vertex="1">
          <mxGeometry x="1190" y="100" width="90" height="50" as="geometry" />
        </mxCell>
        <mxCell id="zGkCt-gyXXFeYOoSQisU-22" value="" style="points=[[0.145,0.145,0],[0.5,0,0],[0.855,0.145,0],[1,0.5,0],[0.855,0.855,0],[0.5,1,0],[0.145,0.855,0],[0,0.5,0]];shape=mxgraph.bpmn.event;html=1;verticalLabelPosition=bottom;labelBackgroundColor=#ffffff;verticalAlign=top;align=center;perimeter=ellipsePerimeter;outlineConnect=0;aspect=fixed;outline=end;symbol=terminate2;" parent="zGkCt-gyXXFeYOoSQisU-3" vertex="1">
          <mxGeometry x="1373" y="107.25" width="35.5" height="35.5" as="geometry" />
        </mxCell>
        <mxCell id="zGkCt-gyXXFeYOoSQisU-23" style="edgeStyle=orthogonalEdgeStyle;rounded=0;orthogonalLoop=1;jettySize=auto;html=1;exitX=1;exitY=0.5;exitDx=0;exitDy=0;exitPerimeter=0;entryX=0;entryY=0.5;entryDx=0;entryDy=0;entryPerimeter=0;" parent="zGkCt-gyXXFeYOoSQisU-3" source="zGkCt-gyXXFeYOoSQisU-21" target="zGkCt-gyXXFeYOoSQisU-22" edge="1">
          <mxGeometry relative="1" as="geometry" />
        </mxCell>
        <mxCell id="zGkCt-gyXXFeYOoSQisU-24" value="&lt;span style=&quot;font-size: 10px;&quot;&gt;Start&lt;/span&gt;" style="text;html=1;align=center;verticalAlign=middle;whiteSpace=wrap;rounded=0;" parent="zGkCt-gyXXFeYOoSQisU-3" vertex="1">
          <mxGeometry x="20" y="57" width="60" height="30" as="geometry" />
        </mxCell>
        <mxCell id="zGkCt-gyXXFeYOoSQisU-25" value="&lt;span style=&quot;font-size: 10px;&quot;&gt;End&lt;/span&gt;" style="text;html=1;align=center;verticalAlign=middle;whiteSpace=wrap;rounded=0;" parent="zGkCt-gyXXFeYOoSQisU-3" vertex="1">
          <mxGeometry x="1370.25" y="150" width="41" height="20" as="geometry" />
        </mxCell>
        <mxCell id="mF-2V8xIqXrmi4AteSaE-2" style="edgeStyle=orthogonalEdgeStyle;rounded=0;orthogonalLoop=1;jettySize=auto;html=1;entryX=0;entryY=0.5;entryDx=0;entryDy=0;entryPerimeter=0;" parent="zGkCt-gyXXFeYOoSQisU-3" source="mF-2V8xIqXrmi4AteSaE-1" target="zGkCt-gyXXFeYOoSQisU-19" edge="1">
          <mxGeometry relative="1" as="geometry">
            <mxPoint x="500" y="35" as="targetPoint" />
          </mxGeometry>
        </mxCell>
        <mxCell id="mF-2V8xIqXrmi4AteSaE-1" value="&lt;font style=&quot;font-size: 10px;&quot;&gt;Existing&lt;/font&gt;&lt;div&gt;&lt;font style=&quot;font-size: 10px;&quot;&gt;supplier?&lt;/font&gt;&lt;/div&gt;" style="strokeWidth=2;html=1;shape=mxgraph.flowchart.decision;whiteSpace=wrap;" parent="zGkCt-gyXXFeYOoSQisU-3" vertex="1">
          <mxGeometry x="356" y="5.5" width="68" height="61.5" as="geometry" />
        </mxCell>
        <mxCell id="mF-2V8xIqXrmi4AteSaE-4" style="edgeStyle=orthogonalEdgeStyle;rounded=0;orthogonalLoop=1;jettySize=auto;html=1;entryX=0.5;entryY=0;entryDx=0;entryDy=0;entryPerimeter=0;" parent="zGkCt-gyXXFeYOoSQisU-3" source="mF-2V8xIqXrmi4AteSaE-1" target="zGkCt-gyXXFeYOoSQisU-16" edge="1">
          <mxGeometry relative="1" as="geometry" />
        </mxCell>
        <mxCell id="75DG7CIm5Q-i1TUaYyUA-0" value="&lt;span style=&quot;font-size: 10px;&quot;&gt;Yes&lt;/span&gt;" style="text;html=1;align=center;verticalAlign=middle;whiteSpace=wrap;rounded=0;" parent="zGkCt-gyXXFeYOoSQisU-3" vertex="1">
          <mxGeometry x="430" y="10" width="41" height="24" as="geometry" />
        </mxCell>
        <mxCell id="75DG7CIm5Q-i1TUaYyUA-2" value="&lt;span style=&quot;font-size: 10px;&quot;&gt;No&lt;/span&gt;" style="text;html=1;align=center;verticalAlign=middle;whiteSpace=wrap;rounded=0;" parent="zGkCt-gyXXFeYOoSQisU-3" vertex="1">
          <mxGeometry x="359" y="66.75" width="26" height="20.25" as="geometry" />
        </mxCell>
        <mxCell id="75DG7CIm5Q-i1TUaYyUA-7" style="edgeStyle=orthogonalEdgeStyle;rounded=0;orthogonalLoop=1;jettySize=auto;html=1;entryX=0.5;entryY=1;entryDx=0;entryDy=0;entryPerimeter=0;" parent="zGkCt-gyXXFeYOoSQisU-3" source="zGkCt-gyXXFeYOoSQisU-18" target="zGkCt-gyXXFeYOoSQisU-19" edge="1">
          <mxGeometry relative="1" as="geometry" />
        </mxCell>
        <mxCell id="zGkCt-gyXXFeYOoSQisU-26" value="Application support" style="swimlane;startSize=20;horizontal=0;html=1;" parent="zGkCt-gyXXFeYOoSQisU-2" vertex="1">
          <mxGeometry x="20" y="190" width="1588" height="160" as="geometry" />
        </mxCell>
        <mxCell id="zGkCt-gyXXFeYOoSQisU-27" style="edgeStyle=orthogonalEdgeStyle;rounded=0;orthogonalLoop=1;jettySize=auto;html=1;" parent="zGkCt-gyXXFeYOoSQisU-26" source="zGkCt-gyXXFeYOoSQisU-28" edge="1">
          <mxGeometry relative="1" as="geometry">
            <mxPoint x="430" y="55" as="targetPoint" />
          </mxGeometry>
        </mxCell>
        <mxCell id="zGkCt-gyXXFeYOoSQisU-28" value="&lt;div&gt;&lt;font style=&quot;font-size: 10px;&quot;&gt;Accept ticket&lt;/font&gt;&lt;/div&gt;" style="points=[[0.25,0,0],[0.5,0,0],[0.75,0,0],[1,0.25,0],[1,0.5,0],[1,0.75,0],[0.75,1,0],[0.5,1,0],[0.25,1,0],[0,0.75,0],[0,0.5,0],[0,0.25,0]];shape=mxgraph.bpmn.task;whiteSpace=wrap;rectStyle=rounded;size=10;html=1;container=1;expand=0;collapsible=0;taskMarker=user;" parent="zGkCt-gyXXFeYOoSQisU-26" vertex="1">
          <mxGeometry x="310" y="30" width="90" height="50" as="geometry" />
        </mxCell>
        <mxCell id="zGkCt-gyXXFeYOoSQisU-29" value="&lt;div&gt;&lt;font style=&quot;font-size: 10px;&quot;&gt;&lt;br&gt;&lt;/font&gt;&lt;/div&gt;&lt;div&gt;&lt;font style=&quot;font-size: 10px;&quot;&gt;Request supplier POC details&lt;/font&gt;&lt;/div&gt;" style="points=[[0.25,0,0],[0.5,0,0],[0.75,0,0],[1,0.25,0],[1,0.5,0],[1,0.75,0],[0.75,1,0],[0.5,1,0],[0.25,1,0],[0,0.75,0],[0,0.5,0],[0,0.25,0]];shape=mxgraph.bpmn.task;whiteSpace=wrap;rectStyle=rounded;size=10;html=1;container=1;expand=0;collapsible=0;taskMarker=user;" parent="zGkCt-gyXXFeYOoSQisU-26" vertex="1">
          <mxGeometry x="430" y="30" width="90" height="50" as="geometry" />
        </mxCell>
        <mxCell id="zGkCt-gyXXFeYOoSQisU-30" value="" style="points=[[0.145,0.145,0],[0.5,0,0],[0.855,0.145,0],[1,0.5,0],[0.855,0.855,0],[0.5,1,0],[0.145,0.855,0],[0,0.5,0]];shape=mxgraph.bpmn.event;html=1;verticalLabelPosition=bottom;labelBackgroundColor=#ffffff;verticalAlign=top;align=center;perimeter=ellipsePerimeter;outlineConnect=0;aspect=fixed;outline=standard;symbol=message;" parent="zGkCt-gyXXFeYOoSQisU-26" vertex="1">
          <mxGeometry x="465" y="-10" width="20" height="20" as="geometry" />
        </mxCell>
        <mxCell id="zGkCt-gyXXFeYOoSQisU-31" value="" style="edgeStyle=elbowEdgeStyle;fontSize=12;html=1;endArrow=blockThin;endFill=1;rounded=0;exitX=0.5;exitY=0;exitDx=0;exitDy=0;exitPerimeter=0;entryX=0.5;entryY=1;entryDx=0;entryDy=0;entryPerimeter=0;" parent="zGkCt-gyXXFeYOoSQisU-26" source="zGkCt-gyXXFeYOoSQisU-29" target="zGkCt-gyXXFeYOoSQisU-30" edge="1">
          <mxGeometry width="160" relative="1" as="geometry">
            <mxPoint x="290" y="10" as="sourcePoint" />
            <mxPoint x="450" y="10" as="targetPoint" />
          </mxGeometry>
        </mxCell>
        <mxCell id="zGkCt-gyXXFeYOoSQisU-32" value="" style="points=[[0.145,0.145,0],[0.5,0,0],[0.855,0.145,0],[1,0.5,0],[0.855,0.855,0],[0.5,1,0],[0.145,0.855,0],[0,0.5,0]];shape=mxgraph.bpmn.event;html=1;verticalLabelPosition=bottom;labelBackgroundColor=#ffffff;verticalAlign=top;align=center;perimeter=ellipsePerimeter;outlineConnect=0;aspect=fixed;outline=end;symbol=message;" parent="zGkCt-gyXXFeYOoSQisU-26" vertex="1">
          <mxGeometry x="530" y="-10" width="20" height="20" as="geometry" />
        </mxCell>
        <mxCell id="zGkCt-gyXXFeYOoSQisU-33" style="edgeStyle=orthogonalEdgeStyle;rounded=0;orthogonalLoop=1;jettySize=auto;html=1;entryX=1;entryY=0.25;entryDx=0;entryDy=0;entryPerimeter=0;" parent="zGkCt-gyXXFeYOoSQisU-26" source="zGkCt-gyXXFeYOoSQisU-32" target="zGkCt-gyXXFeYOoSQisU-29" edge="1">
          <mxGeometry relative="1" as="geometry">
            <Array as="points">
              <mxPoint x="540" y="43" />
            </Array>
          </mxGeometry>
        </mxCell>
        <mxCell id="zGkCt-gyXXFeYOoSQisU-34" value="&lt;div&gt;&lt;font style=&quot;font-size: 6px;&quot;&gt;&lt;br&gt;&lt;/font&gt;&lt;/div&gt;&lt;div&gt;&lt;font style=&quot;font-size: 8px;&quot;&gt;Share onboarding questionnaire to supplier&lt;/font&gt;&lt;/div&gt;" style="points=[[0.25,0,0],[0.5,0,0],[0.75,0,0],[1,0.25,0],[1,0.5,0],[1,0.75,0],[0.75,1,0],[0.5,1,0],[0.25,1,0],[0,0.75,0],[0,0.5,0],[0,0.25,0]];shape=mxgraph.bpmn.task;whiteSpace=wrap;rectStyle=rounded;size=10;html=1;container=1;expand=0;collapsible=0;taskMarker=user;" parent="zGkCt-gyXXFeYOoSQisU-26" vertex="1">
          <mxGeometry x="550" y="30" width="90" height="50" as="geometry" />
        </mxCell>
        <mxCell id="zGkCt-gyXXFeYOoSQisU-36" style="edgeStyle=orthogonalEdgeStyle;rounded=0;orthogonalLoop=1;jettySize=auto;html=1;" parent="zGkCt-gyXXFeYOoSQisU-26" source="zGkCt-gyXXFeYOoSQisU-37" edge="1">
          <mxGeometry relative="1" as="geometry">
            <mxPoint x="860" y="110" as="targetPoint" />
          </mxGeometry>
        </mxCell>
        <mxCell id="zGkCt-gyXXFeYOoSQisU-37" value="&lt;div&gt;&lt;font style=&quot;font-size: 10px;&quot;&gt;&lt;br&gt;&lt;/font&gt;&lt;/div&gt;&lt;font style=&quot;font-size: 10px;&quot;&gt;Perform necessary checks for missing data&lt;/font&gt;" style="points=[[0.25,0,0],[0.5,0,0],[0.75,0,0],[1,0.25,0],[1,0.5,0],[1,0.75,0],[0.75,1,0],[0.5,1,0],[0.25,1,0],[0,0.75,0],[0,0.5,0],[0,0.25,0]];shape=mxgraph.bpmn.task;whiteSpace=wrap;rectStyle=rounded;size=10;html=1;container=1;expand=0;collapsible=0;taskMarker=user;" parent="zGkCt-gyXXFeYOoSQisU-26" vertex="1">
          <mxGeometry x="740" y="80" width="90" height="60" as="geometry" />
        </mxCell>
        <mxCell id="zGkCt-gyXXFeYOoSQisU-38" style="edgeStyle=orthogonalEdgeStyle;rounded=0;orthogonalLoop=1;jettySize=auto;html=1;" parent="zGkCt-gyXXFeYOoSQisU-26" target="zGkCt-gyXXFeYOoSQisU-41" edge="1">
          <mxGeometry relative="1" as="geometry">
            <mxPoint x="875" y="125" as="sourcePoint" />
          </mxGeometry>
        </mxCell>
        <mxCell id="zGkCt-gyXXFeYOoSQisU-39" style="edgeStyle=orthogonalEdgeStyle;rounded=0;orthogonalLoop=1;jettySize=auto;html=1;entryX=0;entryY=0.5;entryDx=0;entryDy=0;entryPerimeter=0;" parent="zGkCt-gyXXFeYOoSQisU-26" target="zGkCt-gyXXFeYOoSQisU-43" edge="1">
          <mxGeometry relative="1" as="geometry">
            <mxPoint x="950" y="110" as="targetPoint" />
            <mxPoint x="920" y="110" as="sourcePoint" />
          </mxGeometry>
        </mxCell>
        <mxCell id="zGkCt-gyXXFeYOoSQisU-42" value="&lt;span style=&quot;font-size: 10px;&quot;&gt;Yes&lt;/span&gt;" style="text;html=1;align=center;verticalAlign=middle;whiteSpace=wrap;rounded=0;" parent="zGkCt-gyXXFeYOoSQisU-26" vertex="1">
          <mxGeometry x="924" y="85" width="39" height="20" as="geometry" />
        </mxCell>
        <mxCell id="zGkCt-gyXXFeYOoSQisU-43" value="&lt;div&gt;&lt;br&gt;&lt;/div&gt;&lt;font style=&quot;font-size: 10px;&quot;&gt;Supplier is registered&lt;/font&gt;" style="points=[[0.25,0,0],[0.5,0,0],[0.75,0,0],[1,0.25,0],[1,0.5,0],[1,0.75,0],[0.75,1,0],[0.5,1,0],[0.25,1,0],[0,0.75,0],[0,0.5,0],[0,0.25,0]];shape=mxgraph.bpmn.task;whiteSpace=wrap;rectStyle=rounded;size=10;html=1;container=1;expand=0;collapsible=0;taskMarker=service;" parent="zGkCt-gyXXFeYOoSQisU-26" vertex="1">
          <mxGeometry x="968" y="85" width="90" height="50" as="geometry" />
        </mxCell>
        <mxCell id="zGkCt-gyXXFeYOoSQisU-44" value="" style="points=[[0.145,0.145,0],[0.5,0,0],[0.855,0.145,0],[1,0.5,0],[0.855,0.855,0],[0.5,1,0],[0.145,0.855,0],[0,0.5,0]];shape=mxgraph.bpmn.event;html=1;verticalLabelPosition=bottom;labelBackgroundColor=#ffffff;verticalAlign=top;align=center;perimeter=ellipsePerimeter;outlineConnect=0;aspect=fixed;outline=end;symbol=message;" parent="zGkCt-gyXXFeYOoSQisU-26" vertex="1">
          <mxGeometry x="1003" y="28" width="20" height="20" as="geometry" />
        </mxCell>
        <mxCell id="zGkCt-gyXXFeYOoSQisU-45" style="edgeStyle=orthogonalEdgeStyle;rounded=0;orthogonalLoop=1;jettySize=auto;html=1;entryX=0.5;entryY=1;entryDx=0;entryDy=0;entryPerimeter=0;" parent="zGkCt-gyXXFeYOoSQisU-26" source="zGkCt-gyXXFeYOoSQisU-43" target="zGkCt-gyXXFeYOoSQisU-44" edge="1">
          <mxGeometry relative="1" as="geometry" />
        </mxCell>
        <mxCell id="zGkCt-gyXXFeYOoSQisU-46" value="&lt;div&gt;&lt;font style=&quot;font-size: 10px;&quot;&gt;&lt;br&gt;&lt;/font&gt;&lt;/div&gt;&lt;div&gt;&lt;font style=&quot;font-size: 10px;&quot;&gt;Complete ERP support tasks&lt;/font&gt;&lt;/div&gt;" style="points=[[0.25,0,0],[0.5,0,0],[0.75,0,0],[1,0.25,0],[1,0.5,0],[1,0.75,0],[0.75,1,0],[0.5,1,0],[0.25,1,0],[0,0.75,0],[0,0.5,0],[0,0.25,0]];shape=mxgraph.bpmn.task;whiteSpace=wrap;rectStyle=rounded;size=10;html=1;container=1;expand=0;collapsible=0;taskMarker=user;" parent="zGkCt-gyXXFeYOoSQisU-26" vertex="1">
          <mxGeometry x="1105" y="13" width="90" height="50" as="geometry" />
        </mxCell>
        <mxCell id="zGkCt-gyXXFeYOoSQisU-47" value="&lt;div&gt;&lt;font style=&quot;font-size: 10px;&quot;&gt;Contract is published&lt;/font&gt;&lt;/div&gt;" style="points=[[0.25,0,0],[0.5,0,0],[0.75,0,0],[1,0.25,0],[1,0.5,0],[1,0.75,0],[0.75,1,0],[0.5,1,0],[0.25,1,0],[0,0.75,0],[0,0.5,0],[0,0.25,0]];shape=mxgraph.bpmn.task;whiteSpace=wrap;rectStyle=rounded;size=10;html=1;container=1;expand=0;collapsible=0;taskMarker=user;" parent="zGkCt-gyXXFeYOoSQisU-26" vertex="1">
          <mxGeometry x="1105" y="95" width="90" height="50" as="geometry" />
        </mxCell>
        <mxCell id="zGkCt-gyXXFeYOoSQisU-48" style="edgeStyle=orthogonalEdgeStyle;rounded=0;orthogonalLoop=1;jettySize=auto;html=1;exitX=0.5;exitY=1;exitDx=0;exitDy=0;exitPerimeter=0;entryX=0.5;entryY=0;entryDx=0;entryDy=0;entryPerimeter=0;" parent="zGkCt-gyXXFeYOoSQisU-26" source="zGkCt-gyXXFeYOoSQisU-46" target="zGkCt-gyXXFeYOoSQisU-47" edge="1">
          <mxGeometry relative="1" as="geometry" />
        </mxCell>
        <mxCell id="75DG7CIm5Q-i1TUaYyUA-5" style="edgeStyle=orthogonalEdgeStyle;rounded=0;orthogonalLoop=1;jettySize=auto;html=1;entryX=0;entryY=0.5;entryDx=0;entryDy=0;entryPerimeter=0;" parent="zGkCt-gyXXFeYOoSQisU-26" source="zGkCt-gyXXFeYOoSQisU-29" target="zGkCt-gyXXFeYOoSQisU-34" edge="1">
          <mxGeometry relative="1" as="geometry" />
        </mxCell>
        <mxCell id="75DG7CIm5Q-i1TUaYyUA-8" value="&lt;span style=&quot;font-size: 10px;&quot;&gt;Data&amp;nbsp;&lt;/span&gt;&lt;div&gt;&lt;span style=&quot;font-size: 10px;&quot;&gt;missing?&lt;/span&gt;&lt;/div&gt;" style="strokeWidth=2;html=1;shape=mxgraph.flowchart.decision;whiteSpace=wrap;" parent="zGkCt-gyXXFeYOoSQisU-26" vertex="1">
          <mxGeometry x="862" y="78.5" width="68" height="61.5" as="geometry" />
        </mxCell>
        <mxCell id="zGkCt-gyXXFeYOoSQisU-49" value="Supplier" style="swimlane;startSize=20;horizontal=0;html=1;" parent="zGkCt-gyXXFeYOoSQisU-2" vertex="1">
          <mxGeometry x="20" y="350" width="1588" height="146" as="geometry" />
        </mxCell>
        <mxCell id="zGkCt-gyXXFeYOoSQisU-50" style="edgeStyle=orthogonalEdgeStyle;rounded=0;orthogonalLoop=1;jettySize=auto;html=1;" parent="zGkCt-gyXXFeYOoSQisU-49" source="zGkCt-gyXXFeYOoSQisU-51" edge="1">
          <mxGeometry relative="1" as="geometry">
            <mxPoint x="670" y="55" as="targetPoint" />
          </mxGeometry>
        </mxCell>
        <mxCell id="zGkCt-gyXXFeYOoSQisU-51" value="&lt;div&gt;&lt;font style=&quot;font-size: 10px;&quot;&gt;Review Questionnaire&lt;/font&gt;&lt;/div&gt;" style="points=[[0.25,0,0],[0.5,0,0],[0.75,0,0],[1,0.25,0],[1,0.5,0],[1,0.75,0],[0.75,1,0],[0.5,1,0],[0.25,1,0],[0,0.75,0],[0,0.5,0],[0,0.25,0]];shape=mxgraph.bpmn.task;whiteSpace=wrap;rectStyle=rounded;size=10;html=1;container=1;expand=0;collapsible=0;taskMarker=user;" parent="zGkCt-gyXXFeYOoSQisU-49" vertex="1">
          <mxGeometry x="550" y="30" width="90" height="50" as="geometry" />
        </mxCell>
        <mxCell id="zGkCt-gyXXFeYOoSQisU-52" value="&lt;div&gt;&lt;font style=&quot;font-size: 10px;&quot;&gt;&lt;br&gt;&lt;/font&gt;&lt;/div&gt;&lt;div&gt;&lt;font style=&quot;font-size: 10px;&quot;&gt;Send completed questionnaire&lt;/font&gt;&lt;/div&gt;" style="points=[[0.25,0,0],[0.5,0,0],[0.75,0,0],[1,0.25,0],[1,0.5,0],[1,0.75,0],[0.75,1,0],[0.5,1,0],[0.25,1,0],[0,0.75,0],[0,0.5,0],[0,0.25,0]];shape=mxgraph.bpmn.task;whiteSpace=wrap;rectStyle=rounded;size=10;html=1;container=1;expand=0;collapsible=0;taskMarker=user;" parent="zGkCt-gyXXFeYOoSQisU-49" vertex="1">
          <mxGeometry x="670" y="30" width="90" height="50" as="geometry" />
        </mxCell>
        <mxCell id="zGkCt-gyXXFeYOoSQisU-53" value="&lt;div&gt;&lt;font style=&quot;font-size: 10px;&quot;&gt;&lt;br&gt;&lt;/font&gt;&lt;/div&gt;&lt;div&gt;&lt;font style=&quot;font-size: 10px;&quot;&gt;Provide requested data&lt;/font&gt;&lt;/div&gt;" style="points=[[0.25,0,0],[0.5,0,0],[0.75,0,0],[1,0.25,0],[1,0.5,0],[1,0.75,0],[0.75,1,0],[0.5,1,0],[0.25,1,0],[0,0.75,0],[0,0.5,0],[0,0.25,0]];shape=mxgraph.bpmn.task;whiteSpace=wrap;rectStyle=rounded;size=10;html=1;container=1;expand=0;collapsible=0;taskMarker=user;" parent="zGkCt-gyXXFeYOoSQisU-49" vertex="1">
          <mxGeometry x="851" y="58" width="90" height="50" as="geometry" />
        </mxCell>
        <mxCell id="zGkCt-gyXXFeYOoSQisU-55" value="" style="points=[[0.145,0.145,0],[0.5,0,0],[0.855,0.145,0],[1,0.5,0],[0.855,0.855,0],[0.5,1,0],[0.145,0.855,0],[0,0.5,0]];shape=mxgraph.bpmn.event;html=1;verticalLabelPosition=bottom;labelBackgroundColor=#ffffff;verticalAlign=top;align=center;perimeter=ellipsePerimeter;outlineConnect=0;aspect=fixed;outline=end;symbol=message;" parent="zGkCt-gyXXFeYOoSQisU-49" vertex="1">
          <mxGeometry x="775" y="10" width="20" height="20" as="geometry" />
        </mxCell>
        <mxCell id="zGkCt-gyXXFeYOoSQisU-56" style="edgeStyle=orthogonalEdgeStyle;rounded=0;orthogonalLoop=1;jettySize=auto;html=1;entryX=0.5;entryY=1;entryDx=0;entryDy=0;entryPerimeter=0;" parent="zGkCt-gyXXFeYOoSQisU-49" source="zGkCt-gyXXFeYOoSQisU-53" target="zGkCt-gyXXFeYOoSQisU-55" edge="1">
          <mxGeometry relative="1" as="geometry" />
        </mxCell>
        <mxCell id="zGkCt-gyXXFeYOoSQisU-57" value="&lt;div&gt;&lt;font style=&quot;font-size: 10px;&quot;&gt;Receive&lt;/font&gt;&lt;/div&gt;&lt;div&gt;&lt;font style=&quot;font-size: 10px;&quot;&gt;&amp;nbsp;notification&lt;/font&gt;&lt;/div&gt;" style="points=[[0.25,0,0],[0.5,0,0],[0.75,0,0],[1,0.25,0],[1,0.5,0],[1,0.75,0],[0.75,1,0],[0.5,1,0],[0.25,1,0],[0,0.75,0],[0,0.5,0],[0,0.25,0]];shape=mxgraph.bpmn.task;whiteSpace=wrap;rectStyle=rounded;size=10;html=1;container=1;expand=0;collapsible=0;taskMarker=service;" parent="zGkCt-gyXXFeYOoSQisU-49" vertex="1">
          <mxGeometry x="1105" y="30" width="90" height="50" as="geometry" />
        </mxCell>
        <mxCell id="zGkCt-gyXXFeYOoSQisU-59" style="edgeStyle=orthogonalEdgeStyle;rounded=0;orthogonalLoop=1;jettySize=auto;html=1;" parent="zGkCt-gyXXFeYOoSQisU-49" source="zGkCt-gyXXFeYOoSQisU-57" edge="1">
          <mxGeometry relative="1" as="geometry">
            <mxPoint x="1322" y="-224" as="targetPoint" />
          </mxGeometry>
        </mxCell>
        <mxCell id="zGkCt-gyXXFeYOoSQisU-41" value="" style="points=[[0.145,0.145,0],[0.5,0,0],[0.855,0.145,0],[1,0.5,0],[0.855,0.855,0],[0.5,1,0],[0.145,0.855,0],[0,0.5,0]];shape=mxgraph.bpmn.event;html=1;verticalLabelPosition=bottom;labelBackgroundColor=#ffffff;verticalAlign=top;align=center;perimeter=ellipsePerimeter;outlineConnect=0;aspect=fixed;outline=standard;symbol=message;" parent="zGkCt-gyXXFeYOoSQisU-49" vertex="1">
          <mxGeometry x="886" width="20" height="20" as="geometry" />
        </mxCell>
        <mxCell id="zGkCt-gyXXFeYOoSQisU-65" style="edgeStyle=orthogonalEdgeStyle;rounded=0;orthogonalLoop=1;jettySize=auto;html=1;" parent="zGkCt-gyXXFeYOoSQisU-49" source="zGkCt-gyXXFeYOoSQisU-41" target="zGkCt-gyXXFeYOoSQisU-53" edge="1">
          <mxGeometry relative="1" as="geometry" />
        </mxCell>
        <mxCell id="75DG7CIm5Q-i1TUaYyUA-11" value="&lt;span style=&quot;font-size: 10px;&quot;&gt;No&lt;/span&gt;" style="text;html=1;align=center;verticalAlign=middle;whiteSpace=wrap;rounded=0;" parent="zGkCt-gyXXFeYOoSQisU-49" vertex="1">
          <mxGeometry x="890" y="24" width="39" height="20" as="geometry" />
        </mxCell>
        <mxCell id="2n8-2jC-uQzuK3OpSn-W-0" style="edgeStyle=orthogonalEdgeStyle;rounded=0;orthogonalLoop=1;jettySize=auto;html=1;entryX=0.5;entryY=1;entryDx=0;entryDy=0;entryPerimeter=0;" parent="zGkCt-gyXXFeYOoSQisU-2" source="zGkCt-gyXXFeYOoSQisU-47" target="zGkCt-gyXXFeYOoSQisU-21" edge="1">
          <mxGeometry relative="1" as="geometry">
            <Array as="points">
              <mxPoint x="1255" y="310" />
            </Array>
          </mxGeometry>
        </mxCell>
      </root>
    </mxGraphModel>
  </diagram>
</mxfile>
